# Made in Blockbench 4.12.6
mtllib sncf_platform.mtl

o cube
v -1.75 0.75 0.5
v -1.75 0.75 -0.5
v -1.75 0 0.5
v -1.75 0 -0.5
v -2.5 0.75 -0.5
v -2.5 0.75 0.5
v -2.5 0 -0.5
v -2.5 0 0.5
vt 0.25 0.75
vt 1 0.75
vt 1 0
vt 0.25 0
vt 0 0.75
vt 1 0.75
vt 1 0
vt 0 0
vt 0 0.75
vt 0.75 0.75
vt 0.75 0
vt 0 0
vt 0 1
vt 0.125 1
vt 0.125 0.90625
vt 0 0.90625
vt 0 1
vt 0.09375 1
vt 0.09375 0.875
vt 0 0.875
vt 0 1
vt 0.75 1
vt 0.75 0
vt 0 0
vn 0 0 -1
vn 1 0 0
vn 0 0 1
vn -1 0 0
vn 0 1 0
vn 0 -1 0
usemtl m_4e949a33-8389-555c-e479-13918df53f01
f 4/4/1 7/3/1 5/2/1 2/1/1
f 3/8/2 4/7/2 2/6/2 1/5/2
f 8/12/3 3/11/3 1/10/3 6/9/3
usemtl none
f 7/16/4 8/15/4 6/14/4 5/13/4
f 6/20/5 1/19/5 2/18/5 5/17/5
usemtl m_4e949a33-8389-555c-e479-13918df53f01
f 7/24/6 4/23/6 3/22/6 8/21/6
o cube
v -1.5 1 0.5
v -1.5 1 -0.5
v -1.5 0.75 0.5
v -1.5 0.75 -0.5
v -2.5 1 -0.5
v -2.5 1 0.5
v -2.5 0.75 -0.5
v -2.5 0.75 0.5
vt 0 1
vt 1 1
vt 1 0.78125
vt 0 0.78125
vt 0 1
vt 1 1
vt 1 0.78125
vt 0 0.78125
vt 0 1
vt 1 1
vt 1 0.78125
vt 0 0.78125
vt 0 1
vt 0.125 1
vt 0.125 0.96875
vt 0 0.96875
vt 1 1
vt 1 0
vt 0 0
vt 0 1
vt 0 1
vt 1 1
vt 1 0
vt 0 0
vn 0 0 -1
vn 1 0 0
vn 0 0 1
vn -1 0 0
vn 0 1 0
vn 0 -1 0
usemtl m_4e949a33-8389-555c-e479-13918df53f01
f 12/28/7 15/27/7 13/26/7 10/25/7
f 11/32/8 12/31/8 10/30/8 9/29/8
f 16/36/9 11/35/9 9/34/9 14/33/9
usemtl none
f 15/40/10 16/39/10 14/38/10 13/37/10
usemtl m_ca31ffcb-5e03-e232-4a86-7e49270a7b5e
f 14/44/11 9/43/11 10/42/11 13/41/11
usemtl m_4e949a33-8389-555c-e479-13918df53f01
f 15/48/12 12/47/12 11/46/12 16/45/12
o cube
v -2.5 1 0.5
v -2.5 1 -0.5
v -2.5 0 0.5
v -2.5 0 -0.5
v -3.5 1 -0.5
v -3.5 1 0.5
v -3.5 0 -0.5
v -3.5 0 0.5
vt 0 1
vt 1 1
vt 1 0
vt 0 0
vt 0 1
vt 0.125 1
vt 0.125 0.875
vt 0 0.875
vt 0 1
vt 1 1
vt 1 0
vt 0 0
vt 0 1
vt 1 1
vt 1 0
vt 0 0
vt 1 1
vt 1 0.5625
vt 0 0.5625
vt 0 1
vt 0 1
vt 1 1
vt 1 0
vt 0 0
vn 0 0 -1
vn 1 0 0
vn 0 0 1
vn -1 0 0
vn 0 1 0
vn 0 -1 0
usemtl m_4e949a33-8389-555c-e479-13918df53f01
f 20/52/13 23/51/13 21/50/13 18/49/13
usemtl none
f 19/56/14 20/55/14 18/54/14 17/53/14
usemtl m_4e949a33-8389-555c-e479-13918df53f01
f 24/60/15 19/59/15 17/58/15 22/57/15
f 23/64/16 24/63/16 22/62/16 21/61/16
usemtl m_ca31ffcb-5e03-e232-4a86-7e49270a7b5e
f 22/68/17 17/67/17 18/66/17 21/65/17
usemtl m_4e949a33-8389-555c-e479-13918df53f01
f 23/72/18 20/71/18 19/70/18 24/69/18